<svg width="156" height="150" viewBox="0 0 156 150" fill="none" xmlns="http://www.w3.org/2000/svg">
<path d="M72.5315 135.752L72.4161 149.972L71.5446 149.998C71.0653 150.011 69.3006 149.95 67.623 149.859C40.1761 148.374 15.6966 131.506 5.24774 106.879C1.16056 97.2439 -0.630304 86.2501 0.19759 75.899C1.30435 62.0765 6.33272 49.5457 15.2043 38.4933C17.6095 35.4952 22.7555 30.4217 25.9516 27.8969C38.4594 18.0146 52.5924 12.8629 69.3115 12.0901L72.525 11.9425V23.6591L68.9847 23.9131C60.1044 24.5514 53.4922 26.2817 46.0542 29.9137C39.7622 32.9878 34.9103 36.4722 30.1368 41.346C24.6313 46.9666 20.9429 52.5286 18.2065 59.3454C14.348 68.9497 13.2478 78.8081 14.9254 88.7511C15.3633 91.3432 16.1302 94.5041 16.3241 94.5041C16.4069 94.5041 16.5441 93.5033 16.6269 92.2789C17.5158 79.0751 22.8644 67.3801 32.3395 57.9213C42.1718 48.1063 55.49 42.2643 69.5315 41.6065L72.5315 41.4654L72.4161 56.1867L70.2374 56.3365C51.6664 57.6238 36.3831 70.7126 32.6118 88.5622C32.1717 90.6442 32.1129 91.5364 32.1129 96.1324C32.1129 100.338 32.1891 101.699 32.5072 103.188C33.1761 106.314 34.5116 110.569 34.8232 110.569C34.9059 110.569 35.0889 109.445 35.2327 108.07C35.5595 104.957 35.9604 103.006 36.8188 100.366C40.6119 88.6881 50.5248 79.5614 62.8583 76.3875C65.3724 75.7405 69.159 75.1934 71.1677 75.1869L72.5315 75.1826L72.4749 80.7728L72.4161 86.363L70.5293 86.5063C61.7929 87.1706 53.9671 92.09 49.7797 99.5538C46.625 105.172 45.93 112.797 48.0215 118.81C49.6991 123.632 52.5684 127.637 56.4159 130.525C61.0565 134.011 65.6578 135.752 70.2221 135.752H72.5315ZM91.4642 137.596C89.7343 137.771 87.2659 137.917 85.9783 137.919L83.6362 137.923V126.2L85.2157 126.198C88.7125 126.194 94.2049 125.427 98.4599 124.353C108.275 121.873 117.65 116.672 125 109.627C128.451 106.318 132.902 100.453 135.332 96.013C138.384 90.4358 140.602 83.4974 141.469 76.8195C141.907 73.4523 141.909 66.9829 141.471 63.4529C141.14 60.7652 140.181 56.0412 139.846 55.4377C139.663 55.1099 139.643 55.2531 139.186 60.0944C138.419 68.2398 135.486 76.3158 130.682 83.5147C121.946 96.6056 108.122 105.381 92.3509 107.843C89.865 108.229 84.122 108.672 83.8388 108.498C83.7212 108.424 83.6362 105.346 83.6362 101.113C83.6362 95.049 83.6863 93.8528 83.939 93.8528C85.0044 93.8528 89.1156 93.3383 91.0437 92.9649C96.3945 91.925 102.717 89.2135 107.166 86.0482C109.632 84.2941 113.453 80.7359 115.303 78.4716C123.146 68.8759 126.003 56.1237 122.972 44.2464C122.308 41.6434 121.342 38.9275 121.081 38.9275C120.976 38.9275 120.891 39.6504 120.891 40.534C120.891 46.0873 118.209 53.766 114.403 59.1131C111.482 63.2206 106.643 67.5321 102.188 70.0005C97.0394 72.851 90.3574 74.7484 85.4663 74.7484H83.6362V63.7112L85.1068 63.5701C89.1003 63.1902 91.7256 62.4759 95.0895 60.8564C99.1244 58.9112 102.693 55.7742 105.286 51.8903C111.639 42.3728 110.297 29.7161 102.061 21.4556C99.9435 19.3324 98.1287 18.0212 95.5099 16.7229C91.8498 14.9058 89.011 14.1916 85.4336 14.1829L83.6362 14.1785V0L87.3944 0.132429C92.523 0.312619 97.0394 0.916145 101.501 2.01899C102.519 2.27082 103.745 2.57259 104.225 2.68982C107.443 3.47788 112.92 5.54464 116.843 7.45074C136.85 17.168 150.911 35.4127 154.994 56.9465C155.942 61.9419 156.282 70.3565 155.746 75.5733C153.789 94.6192 143.9 111.791 128.122 123.536C117.425 131.502 105.148 136.208 91.4642 137.596ZM139.192 54.4499C139.192 54.6301 139.29 54.7755 139.41 54.7755C139.53 54.7755 139.628 54.6301 139.628 54.4499C139.628 54.2697 139.53 54.1242 139.41 54.1242C139.29 54.1242 139.192 54.2697 139.192 54.4499Z" fill="#B4EFCE"/>
</svg>
