<svg width="1840" height="313" viewBox="0 0 1840 313" fill="none" xmlns="http://www.w3.org/2000/svg">
<path d="M150.642 283.27L150.403 312.942L148.593 312.996C147.597 313.024 143.932 312.897 140.448 312.706C83.4428 309.608 32.6007 274.409 10.8992 223.02C2.4104 202.916 -1.30909 179.975 0.410379 158.376C2.70904 129.533 13.1526 103.385 31.5781 80.3227C36.5736 74.0667 47.2615 63.4799 53.8995 58.2114C79.8771 37.5905 109.23 26.8407 143.955 25.228L150.629 24.9199V49.3687L143.276 49.8988C124.832 51.2306 111.099 54.8411 95.651 62.4199C82.583 68.8345 72.506 76.1052 62.5919 86.2753C51.1574 98.0036 43.4967 109.61 37.8134 123.834C29.7998 143.875 27.5147 164.446 30.9989 185.194C31.9084 190.603 33.5012 197.199 33.9039 197.199C34.0758 197.199 34.3609 195.11 34.5328 192.555C36.379 165.003 47.4877 140.6 67.1666 120.862C87.5876 100.382 115.248 88.1915 144.412 86.8189L150.642 86.5244L150.403 117.243L145.878 117.555C107.307 120.242 75.5649 147.554 67.7322 184.8C66.8182 189.144 66.696 191.006 66.696 200.596C66.696 209.371 66.8544 212.211 67.515 215.319C68.9042 221.842 71.678 230.721 72.325 230.721C72.497 230.721 72.877 228.375 73.1757 225.507C73.8544 219.011 74.687 214.938 76.4698 209.43C84.3477 185.063 104.936 166.018 130.552 159.395C135.774 158.045 143.638 156.904 147.81 156.89L150.642 156.881L150.525 168.546L150.403 180.211L146.484 180.51C128.339 181.896 112.086 192.161 103.389 207.736C96.8365 219.459 95.3931 235.369 99.737 247.917C103.221 257.979 109.181 266.337 117.172 272.362C126.81 279.637 136.366 283.27 145.846 283.27H150.642ZM189.964 287.116C186.371 287.483 181.244 287.786 178.57 287.791L173.706 287.8V263.338L176.987 263.333C184.249 263.324 195.656 261.725 204.494 259.483C224.878 254.309 244.349 243.455 259.616 228.755C266.784 221.851 276.028 209.611 281.073 200.347C287.413 188.709 292.019 174.231 293.82 160.297C294.73 153.271 294.734 139.771 293.825 132.405C293.137 126.797 291.146 116.939 290.449 115.68C290.069 114.996 290.028 115.295 289.078 125.397C287.485 142.394 281.395 159.246 271.417 174.267C253.272 201.584 224.562 219.894 191.806 225.031C186.643 225.838 174.715 226.762 174.127 226.399C173.882 226.245 173.706 219.822 173.706 210.988C173.706 198.336 173.81 195.84 174.335 195.84C176.548 195.84 185.086 194.766 189.091 193.987C200.204 191.817 213.335 186.159 222.575 179.554C227.697 175.894 235.634 168.469 239.476 163.744C255.765 143.721 261.698 117.111 255.403 92.3274C254.023 86.8959 252.019 81.2287 251.476 81.2287C251.259 81.2287 251.082 82.7373 251.082 84.581C251.082 96.1689 245.512 112.192 237.607 123.349C231.539 131.92 221.489 140.917 212.236 146.068C201.543 152.016 187.665 155.975 177.507 155.975H173.706V132.944L176.76 132.65C185.054 131.857 190.507 130.366 197.493 126.987C205.874 122.928 213.285 116.382 218.67 108.278C231.865 88.418 229.077 62.0076 211.973 44.7707C207.575 40.3403 203.806 37.6041 198.367 34.8952C190.765 31.1035 184.869 29.6131 177.439 29.595L173.706 29.5859V0L181.511 0.276335C192.163 0.652331 201.543 1.91169 210.81 4.21297C212.923 4.73845 215.471 5.36814 216.467 5.61276C223.15 7.25718 234.525 11.5698 242.675 15.5472C284.227 35.8238 313.431 73.8946 321.911 118.828C323.879 129.252 324.585 146.811 323.472 157.696C319.409 197.439 298.87 233.272 266.1 257.779C243.883 274.4 218.385 284.221 189.964 287.116ZM289.092 113.619C289.092 113.995 289.295 114.298 289.544 114.298C289.793 114.298 289.997 113.995 289.997 113.619C289.997 113.243 289.793 112.939 289.544 112.939C289.295 112.939 289.092 113.243 289.092 113.619Z" fill="#B4EFCE"/>
<path d="M377 246.256V65H444.917C458.83 65 470.504 67.5961 479.937 72.7884C489.428 77.9806 496.592 85.1199 501.426 94.2063C506.319 103.234 508.766 113.5 508.766 125.006C508.766 136.629 506.319 146.955 501.426 155.982C496.533 165.01 489.311 172.119 479.76 177.312C470.209 182.445 458.447 185.012 444.475 185.012H399.462V158.018H440.053C448.189 158.018 454.851 156.602 460.039 153.77C465.227 150.937 469.059 147.043 471.535 142.087C474.071 137.131 475.338 131.437 475.338 125.006C475.338 118.574 474.071 112.91 471.535 108.013C469.059 103.116 465.198 99.3101 459.951 96.596C454.763 93.8228 448.071 92.4363 439.876 92.4363H409.809V246.256H377Z" fill="white"/>
<path d="M567.862 166.603V246.256H535.849V65H567.154V133.414H568.746C571.93 125.743 576.852 119.696 583.514 115.27C590.235 110.786 598.784 108.544 609.16 108.544C618.593 108.544 626.817 110.521 633.833 114.474C640.849 118.427 646.273 124.209 650.105 131.821C653.996 139.432 655.941 148.725 655.941 159.699V246.256H623.928V164.656C623.928 155.51 621.57 148.4 616.854 143.326C612.196 138.193 605.652 135.626 597.222 135.626C591.562 135.626 586.492 136.865 582.011 139.343C577.589 141.763 574.111 145.273 571.576 149.875C569.1 154.478 567.862 160.053 567.862 166.603Z" fill="white"/>
<path d="M727.661 249C719.053 249 711.301 247.466 704.403 244.398C697.564 241.271 692.14 236.668 688.131 230.591C684.181 224.514 682.206 217.021 682.206 208.111C682.206 200.441 683.621 194.098 686.451 189.083C689.281 184.068 693.142 180.055 698.036 177.046C702.929 174.037 708.441 171.765 714.573 170.231C720.763 168.638 727.16 167.488 733.763 166.78C741.722 165.954 748.178 165.216 753.13 164.567C758.082 163.859 761.678 162.797 763.919 161.381C766.218 159.906 767.368 157.634 767.368 154.566V154.035C767.368 147.368 765.393 142.205 761.443 138.547C757.493 134.889 751.803 133.06 744.375 133.06C736.534 133.06 730.314 134.771 725.715 138.193C721.176 141.615 718.11 145.657 716.518 150.318L686.628 146.07C688.986 137.809 692.877 130.906 698.301 125.36C703.725 119.755 710.358 115.565 718.199 112.792C726.04 109.96 734.706 108.544 744.198 108.544C750.742 108.544 757.257 109.311 763.742 110.845C770.227 112.379 776.152 114.916 781.517 118.456C786.882 121.938 791.186 126.687 794.428 132.706C797.73 138.724 799.381 146.247 799.381 155.274V246.256H768.606V227.582H767.545C765.599 231.358 762.858 234.898 759.32 238.203C755.842 241.448 751.45 244.073 746.144 246.079C740.897 248.026 734.736 249 727.661 249ZM735.974 225.458C742.4 225.458 747.971 224.189 752.688 221.652C757.404 219.056 761.03 215.634 763.565 211.386C766.159 207.138 767.456 202.506 767.456 197.491V181.471C766.454 182.297 764.744 183.064 762.327 183.772C759.969 184.481 757.316 185.1 754.368 185.631C751.42 186.162 748.502 186.634 745.613 187.047C742.724 187.46 740.219 187.814 738.096 188.109C733.321 188.758 729.046 189.82 725.273 191.295C721.5 192.77 718.523 194.836 716.342 197.491C714.16 200.087 713.069 203.45 713.069 207.58C713.069 213.48 715.221 217.935 719.525 220.944C723.829 223.953 729.312 225.458 735.974 225.458Z" fill="white"/>
<path d="M831.57 246.256V110.314H862.611V132.971H864.026C866.502 125.124 870.746 119.076 876.76 114.828C882.832 110.521 889.76 108.367 897.542 108.367C899.31 108.367 901.286 108.456 903.467 108.633C905.707 108.751 907.564 108.957 909.038 109.252V138.724C907.682 138.252 905.53 137.839 902.583 137.485C899.694 137.072 896.893 136.865 894.181 136.865C888.345 136.865 883.098 138.134 878.44 140.671C873.842 143.149 870.216 146.601 867.563 151.026C864.91 155.451 863.583 160.555 863.583 166.337V246.256H831.57Z" fill="white"/>
<path d="M930.306 246.256V110.314H960.904V133.414H962.496C965.326 125.625 970.013 119.548 976.557 115.182C983.101 110.757 990.913 108.544 999.992 108.544C1009.19 108.544 1016.94 110.786 1023.25 115.27C1029.62 119.696 1034.1 125.743 1036.69 133.414H1038.11C1041.11 125.861 1046.18 119.843 1053.32 115.359C1060.51 110.816 1069.03 108.544 1078.87 108.544C1091.37 108.544 1101.57 112.497 1109.47 120.404C1117.37 128.31 1121.32 139.845 1121.32 155.009V246.256H1089.22V159.965C1089.22 151.527 1086.98 145.362 1082.5 141.468C1078.02 137.514 1072.54 135.538 1066.05 135.538C1058.33 135.538 1052.29 137.957 1047.92 142.795C1043.62 147.574 1041.47 153.799 1041.47 161.469V246.256H1010.07V158.637C1010.07 151.616 1007.95 146.011 1003.71 141.822C999.52 137.632 994.038 135.538 987.258 135.538C982.659 135.538 978.473 136.718 974.7 139.078C970.927 141.379 967.92 144.654 965.68 148.902C963.44 153.091 962.319 157.988 962.319 163.594V246.256H930.306Z" fill="white"/>
<path d="M1192.89 249C1184.28 249 1176.53 247.466 1169.63 244.398C1162.79 241.271 1157.37 236.668 1153.36 230.591C1149.41 224.514 1147.43 217.021 1147.43 208.111C1147.43 200.441 1148.85 194.098 1151.68 189.083C1154.51 184.068 1158.37 180.055 1163.26 177.046C1168.16 174.037 1173.67 171.765 1179.8 170.231C1185.99 168.638 1192.39 167.488 1198.99 166.78C1206.95 165.954 1213.4 165.216 1218.36 164.567C1223.31 163.859 1226.91 162.797 1229.15 161.381C1231.44 159.906 1232.59 157.634 1232.59 154.566V154.035C1232.59 147.368 1230.62 142.205 1226.67 138.547C1222.72 134.889 1217.03 133.06 1209.6 133.06C1201.76 133.06 1195.54 134.771 1190.94 138.193C1186.4 141.615 1183.34 145.657 1181.75 150.318L1151.85 146.07C1154.21 137.809 1158.1 130.906 1163.53 125.36C1168.95 119.755 1175.58 115.565 1183.43 112.792C1191.27 109.96 1199.93 108.544 1209.42 108.544C1215.97 108.544 1222.48 109.311 1228.97 110.845C1235.45 112.379 1241.38 114.916 1246.74 118.456C1252.11 121.938 1256.41 126.687 1259.65 132.706C1262.96 138.724 1264.61 146.247 1264.61 155.274V246.256H1233.83V227.582H1232.77C1230.83 231.358 1228.08 234.898 1224.55 238.203C1221.07 241.448 1216.68 244.073 1211.37 246.079C1206.12 248.026 1199.96 249 1192.89 249ZM1201.2 225.458C1207.63 225.458 1213.2 224.189 1217.91 221.652C1222.63 219.056 1226.26 215.634 1228.79 211.386C1231.39 207.138 1232.68 202.506 1232.68 197.491V181.471C1231.68 182.297 1229.97 183.064 1227.55 183.772C1225.2 184.481 1222.54 185.1 1219.59 185.631C1216.65 186.162 1213.73 186.634 1210.84 187.047C1207.95 187.46 1205.45 187.814 1203.32 188.109C1198.55 188.758 1194.27 189.82 1190.5 191.295C1186.73 192.77 1183.75 194.836 1181.57 197.491C1179.39 200.087 1178.3 203.45 1178.3 207.58C1178.3 213.48 1180.45 217.935 1184.75 220.944C1189.06 223.953 1194.54 225.458 1201.2 225.458Z" fill="white"/>
<path d="M1404.16 146.247L1374.97 149.433C1374.15 146.483 1372.7 143.71 1370.64 141.114C1368.63 138.517 1365.92 136.423 1362.5 134.83C1359.08 133.237 1354.9 132.44 1349.95 132.44C1343.28 132.44 1337.68 133.886 1333.14 136.777C1328.66 139.668 1326.45 143.415 1326.51 148.017C1326.45 151.97 1327.9 155.186 1330.84 157.664C1333.85 160.142 1338.8 162.177 1345.7 163.771L1368.87 168.727C1381.72 171.5 1391.27 175.896 1397.52 181.914C1403.83 187.932 1407.01 195.809 1407.07 205.544C1407.01 214.1 1404.51 221.652 1399.56 228.202C1394.66 234.692 1387.85 239.766 1379.13 243.424C1370.4 247.082 1360.38 248.911 1349.06 248.911C1332.44 248.911 1319.05 245.43 1308.91 238.468C1298.77 231.447 1292.73 221.682 1290.78 209.173L1322 206.164C1323.42 212.3 1326.42 216.932 1331.02 220.059C1335.62 223.186 1341.6 224.75 1348.97 224.75C1356.58 224.75 1362.68 223.186 1367.28 220.059C1371.94 216.932 1374.26 213.067 1374.26 208.465C1374.26 204.571 1372.76 201.355 1369.75 198.818C1366.81 196.281 1362.21 194.334 1355.96 192.977L1332.79 188.109C1319.76 185.395 1310.12 180.822 1303.87 174.391C1297.62 167.901 1294.53 159.699 1294.59 149.787C1294.53 141.409 1296.8 134.151 1301.4 128.015C1306.05 121.82 1312.51 117.04 1320.76 113.677C1329.08 110.255 1338.66 108.544 1349.5 108.544C1365.42 108.544 1377.95 111.937 1387.09 118.722C1396.28 125.507 1401.97 134.682 1404.16 146.247Z" fill="white"/>
<path d="M1472.56 249C1463.95 249 1456.2 247.466 1449.3 244.398C1442.46 241.271 1437.04 236.668 1433.03 230.591C1429.08 224.514 1427.1 217.021 1427.1 208.111C1427.1 200.441 1428.52 194.098 1431.35 189.083C1434.18 184.068 1438.04 180.055 1442.93 177.046C1447.83 174.037 1453.34 171.765 1459.47 170.231C1465.66 168.638 1472.06 167.488 1478.66 166.78C1486.62 165.954 1493.08 165.216 1498.03 164.567C1502.98 163.859 1506.58 162.797 1508.82 161.381C1511.12 159.906 1512.27 157.634 1512.27 154.566V154.035C1512.27 147.368 1510.29 142.205 1506.34 138.547C1502.39 134.889 1496.7 133.06 1489.27 133.06C1481.43 133.06 1475.21 134.771 1470.61 138.193C1466.07 141.615 1463.01 145.657 1461.42 150.318L1431.53 146.07C1433.88 137.809 1437.77 130.906 1443.2 125.36C1448.62 119.755 1455.26 115.565 1463.1 112.792C1470.94 109.96 1479.6 108.544 1489.1 108.544C1495.64 108.544 1502.15 109.311 1508.64 110.845C1515.12 112.379 1521.05 114.916 1526.41 118.456C1531.78 121.938 1536.08 126.687 1539.33 132.706C1542.63 138.724 1544.28 146.247 1544.28 155.274V246.256H1513.5V227.582H1512.44C1510.5 231.358 1507.76 234.898 1504.22 238.203C1500.74 241.448 1496.35 244.073 1491.04 246.079C1485.79 248.026 1479.63 249 1472.56 249ZM1480.87 225.458C1487.3 225.458 1492.87 224.189 1497.59 221.652C1502.3 219.056 1505.93 215.634 1508.46 211.386C1511.06 207.138 1512.35 202.506 1512.35 197.491V181.471C1511.35 182.297 1509.64 183.064 1507.22 183.772C1504.87 184.481 1502.21 185.1 1499.27 185.631C1496.32 186.162 1493.4 186.634 1490.51 187.047C1487.62 187.46 1485.12 187.814 1482.99 188.109C1478.22 188.758 1473.94 189.82 1470.17 191.295C1466.4 192.77 1463.42 194.836 1461.24 197.491C1459.06 200.087 1457.97 203.45 1457.97 207.58C1457.97 213.48 1460.12 217.935 1464.42 220.944C1468.73 223.953 1474.21 225.458 1480.87 225.458Z" fill="white"/>
<path d="M1608.48 166.603V246.256H1576.47V65H1607.77V133.414H1609.37C1612.55 125.743 1617.47 119.696 1624.13 115.27C1630.85 110.786 1639.4 108.544 1649.78 108.544C1659.21 108.544 1667.44 110.521 1674.45 114.474C1681.47 118.427 1686.89 124.209 1690.72 131.821C1694.62 139.432 1696.56 148.725 1696.56 159.699V246.256H1664.55V164.656C1664.55 155.51 1662.19 148.4 1657.47 143.326C1652.82 138.193 1646.27 135.626 1637.84 135.626C1632.18 135.626 1627.11 136.865 1622.63 139.343C1618.21 141.763 1614.73 145.273 1612.2 149.875C1609.72 154.478 1608.48 160.053 1608.48 166.603Z" fill="white"/>
<path d="M1768.28 249C1759.67 249 1751.92 247.466 1745.02 244.398C1738.18 241.271 1732.76 236.668 1728.75 230.591C1724.8 224.514 1722.83 217.021 1722.83 208.111C1722.83 200.441 1724.24 194.098 1727.07 189.083C1729.9 184.068 1733.76 180.055 1738.66 177.046C1743.55 174.037 1749.06 171.765 1755.19 170.231C1761.38 168.638 1767.78 167.488 1774.38 166.78C1782.34 165.954 1788.8 165.216 1793.75 164.567C1798.7 163.859 1802.3 162.797 1804.54 161.381C1806.84 159.906 1807.99 157.634 1807.99 154.566V154.035C1807.99 147.368 1806.01 142.205 1802.06 138.547C1798.11 134.889 1792.42 133.06 1784.99 133.06C1777.15 133.06 1770.93 134.771 1766.33 138.193C1761.8 141.615 1758.73 145.657 1757.14 150.318L1727.25 146.07C1729.61 137.809 1733.5 130.906 1738.92 125.36C1744.34 119.755 1750.98 115.565 1758.82 112.792C1766.66 109.96 1775.33 108.544 1784.82 108.544C1791.36 108.544 1797.88 109.311 1804.36 110.845C1810.85 112.379 1816.77 114.916 1822.14 118.456C1827.5 121.938 1831.81 126.687 1835.05 132.706C1838.35 138.724 1840 146.247 1840 155.274V246.256H1809.23V227.582H1808.16C1806.22 231.358 1803.48 234.898 1799.94 238.203C1796.46 241.448 1792.07 244.073 1786.76 246.079C1781.52 248.026 1775.35 249 1768.28 249ZM1776.59 225.458C1783.02 225.458 1788.59 224.189 1793.31 221.652C1798.02 219.056 1801.65 215.634 1804.18 211.386C1806.78 207.138 1808.08 202.506 1808.08 197.491V181.471C1807.07 182.297 1805.36 183.064 1802.95 183.772C1800.59 184.481 1797.94 185.1 1794.99 185.631C1792.04 186.162 1789.12 186.634 1786.23 187.047C1783.34 187.46 1780.84 187.814 1778.72 188.109C1773.94 188.758 1769.67 189.82 1765.89 191.295C1762.12 192.77 1759.14 194.836 1756.96 197.491C1754.78 200.087 1753.69 203.45 1753.69 207.58C1753.69 213.48 1755.84 217.935 1760.14 220.944C1764.45 223.953 1769.93 225.458 1776.59 225.458Z" fill="white"/>
</svg>
